2600 0 1 0           
17 Abaqus 2023 - 310 12 ACIS 31.0 NT 24 Sun Dec  1 04:54:17 2024 
1 9.9999999999999995e-07 1e-10 
T @77 K2NKAQ3_544BW5ASE28XHMXCH5DMXZP99AKVEZQVJ8PKJGQV6ANCK65X2DACNJQ33BQUM659FB3CP 
-0 body $1 -1 -1 $-1 $2 $-1 $3 T -15 -20 0 20 15 5 #
-1 string_attrib-name_attrib-gen-attrib $-1 -1 $4 $-1 $0 2 1 1 1 1 1 1 1 1 1 1 1 1 1 0 1 1 1 @13 HKS_PART_NAME @7 geocell #
-2 lump $-1 -1 -1 $-1 $-1 $5 $0 T -15 -20 0 20 15 5 #
-3 transform $-1 -1 1 0 0 0 1 0 0 0 1 0 0 0 1 no_rotate no_reflect no_shear #
-4 string_attrib-name_attrib-gen-attrib $-1 -1 $-1 $1 $0 2 1 1 1 1 1 1 1 1 1 1 1 1 1 0 1 1 1 @18 HKS_ATTRIB_BODY_ID @1 1 #
-5 shell $-1 -1 -1 $-1 $-1 $-1 $6 $-1 $2 T -15 -20 0 20 15 5 #
-6 face $-1 -1 -1 $-1 $7 $8 $5 $-1 $9 forward double out T -15 10 0 -10 15 5 F #
-7 face $-1 -1 -1 $-1 $10 $11 $5 $-1 $12 forward double out T -10 15 0 -5.2867622375488299 15 5 F #
-8 loop $-1 -1 -1 $-1 $-1 $13 $6 T -15 10 0 -10 15 5 periphery $9 F #
-9 plane-surface $-1 -1 -1 $-1 -12.5 12.5 0 0.70710678118654746 -0.70710678118654746 0 0.70710678118654746 0.70710678118654746 0 forward_v I I I I #
-10 face $-1 -1 -1 $-1 $14 $15 $5 $-1 $16 forward double out T -5.2867622375488299 10 0 8.8817841970012523e-16 15 5 F #
-11 loop $-1 -1 -1 $-1 $-1 $17 $7 T -10 15 0 -5.2867622375488299 15 5 periphery $12 F #
-12 plane-surface $-1 -1 -1 $-1 -7.643381118774415 15 0 0 -1 0 1 0 0 forward_v I I I I #
-13 coedge $-1 -1 -1 $-1 $18 $19 $-1 $20 forward $8 $-1 #
-14 face $-1 -1 -1 $-1 $21 $22 $5 $-1 $23 forward double out T -4.7287921939405404 5 0 0 10 5 F #
-15 loop $-1 -1 -1 $-1 $-1 $24 $10 T -5.2867622375488299 10 0 8.8817841970012523e-16 15 5 periphery $16 F #
-16 plane-surface $-1 -1 -1 $-1 -2.6433811187744145 12.5 0 -0.6871279538480165 -0.72653642375357774 0 0.72653642375357774 -0.6871279538480165 0 forward_v I I I I #
-17 coedge $-1 -1 -1 $-1 $25 $26 $-1 $27 forward $11 $-1 #
-18 coedge $-1 -1 -1 $-1 $28 $13 $29 $30 reversed $8 $-1 #
-19 coedge $-1 -1 -1 $-1 $13 $28 $25 $31 forward $8 $-1 #
-20 edge $-1 -1 -1 $-1 $32 -7.0710678118654755 $33 -0 $13 $34 forward @7 unknown T -15 10 5 -10 15 5 #
-21 face $-1 -1 -1 $-1 $35 $36 $5 $-1 $37 forward double out T -15 5 0 -9.4921417236328107 10 5 F #
-22 loop $-1 -1 -1 $-1 $-1 $38 $14 T -4.7287921939405404 5 0 0 10 5 periphery $23 F #
-23 plane-surface $-1 -1 -1 $-1 -2.3643960969702698 7.5 0 -0.7265364237516494 0.68712795385005521 0 -0.68712795385005521 -0.7265364237516494 0 forward_v I I I I #
-24 coedge $-1 -1 -1 $-1 $39 $40 $-1 $41 forward $15 $-1 #
-25 coedge $-1 -1 -1 $-1 $42 $17 $19 $31 reversed $11 $-1 #
-26 coedge $-1 -1 -1 $-1 $17 $42 $39 $43 forward $11 $-1 #
-27 edge $-1 -1 -1 $-1 $44 -4.7132377624511701 $32 -0 $17 $45 forward @7 unknown T -10 15 5 -5.2867622375488299 15 5 #
-28 coedge $-1 -1 -1 $-1 $19 $18 $-1 $46 forward $8 $-1 #
-29 coedge $-1 -1 -1 $-1 $47 $48 $18 $30 forward $36 $-1 #
-30 edge $-1 -1 -1 $-1 $49 0 $33 5 $29 $50 forward @7 unknown T -15 10 0 -15 10 5 #
-31 edge $-1 -1 -1 $-1 $51 0 $32 5 $25 $52 forward @7 unknown T -10 15 0 -10 15 5 #
-32 vertex $-1 -1 -1 $-1 $31 $53 #
-33 vertex $-1 -1 -1 $-1 $30 $54 #
-34 straight-curve $-1 -1 -1 $-1 -15 10 5 -0.70710678118654691 -0.70710678118654691 -0 I I #
-35 face $-1 -1 -1 $-1 $55 $56 $5 $-1 $57 forward double out T 0 10 0 4.80615234375 10 5 F #
-36 loop $-1 -1 -1 $-1 $-1 $47 $21 T -15 5 0 -9.4921417236328107 10 5 periphery $37 F #
-37 plane-surface $-1 -1 -1 $-1 -12.246070861816404 7.5 0 0.67214682262021408 0.7404178879805311 -0 -0.7404178879805311 0.67214682262021408 0 forward_v I I I I #
-38 coedge $-1 -1 -1 $-1 $58 $59 $-1 $60 forward $22 $-1 #
-39 coedge $-1 -1 -1 $-1 $61 $24 $26 $43 reversed $15 $-1 #
-40 coedge $-1 -1 -1 $-1 $24 $61 $58 $62 forward $15 $-1 #
-41 edge $-1 -1 -1 $-1 $63 -7.2766650985442718 $44 0 $24 $64 forward @7 unknown T -5.2867622375488299 10 5 8.8817841970012523e-16 15 5 #
-42 coedge $-1 -1 -1 $-1 $26 $25 $-1 $65 forward $11 $-1 #
-43 edge $-1 -1 -1 $-1 $66 0 $44 5 $39 $67 forward @7 unknown T -5.2867622375488299 15 0 -5.2867622375488299 15 5 #
-44 vertex $-1 -1 -1 $-1 $43 $68 #
-45 straight-curve $-1 -1 -1 $-1 -10 15 5 -1 -0 -0 I I #
-46 edge $-1 -1 -1 $-1 $49 0 $51 7.0710678118654746 $28 $69 forward @7 unknown T -15 10 0 -10 15 0 #
-47 coedge $-1 -1 -1 $-1 $70 $29 $-1 $71 forward $36 $-1 #
-48 coedge $-1 -1 -1 $-1 $29 $70 $-1 $72 forward $36 $-1 #
-49 vertex $-1 -1 -1 $-1 $72 $73 #
-50 straight-curve $-1 -1 -1 $-1 -15 10 0 0 0 1 I I #
-51 vertex $-1 -1 -1 $-1 $65 $74 #
-52 straight-curve $-1 -1 -1 $-1 -10 15 0 0 0 1 I I #
-53 point $-1 -1 -1 $-1 -10 15 5 #
-54 point $-1 -1 -1 $-1 -15 10 5 #
-55 face $-1 -1 -1 $-1 $75 $76 $5 $-1 $77 forward double out T 4.80615234375 10 0 10 15 5 F #
-56 loop $-1 -1 -1 $-1 $-1 $78 $35 T 0 10 0 4.80615234375 10 5 periphery $57 F #
-57 plane-surface $-1 -1 -1 $-1 2.403076171875 10 0 0 -1 0 1 0 0 forward_v I I I I #
-58 coedge $-1 -1 -1 $-1 $79 $38 $80 $62 reversed $22 $-1 #
-59 coedge $-1 -1 -1 $-1 $38 $79 $81 $82 forward $22 $-1 #
-60 edge $-1 -1 -1 $-1 $83 -6.8819674231627248 $63 0 $38 $84 forward @7 unknown T -4.7287921939405404 5 5 0 10 5 #
-61 coedge $-1 -1 -1 $-1 $40 $39 $-1 $85 forward $15 $-1 #
-62 edge $-1 -1 -1 $-1 $86 0 $63 5 $80 $87 forward @7 unknown T 0 10 0 0 10 5 #
-63 vertex $-1 -1 -1 $-1 $62 $88 #
-64 straight-curve $-1 -1 -1 $-1 -5.2867622375488299 15 5 -0.72653642375357774 0.6871279538480165 0 I I #
-65 edge $-1 -1 -1 $-1 $51 0 $66 4.7132377624511701 $42 $89 forward @7 unknown T -10 15 0 -5.2867622375488299 15 0 #
-66 vertex $-1 -1 -1 $-1 $85 $90 #
-67 straight-curve $-1 -1 -1 $-1 -5.2867622375488299 15 0 0 0 1 I I #
-68 point $-1 -1 -1 $-1 -5.2867622375488299 15 5 #
-69 straight-curve $-1 -1 -1 $-1 -15 10 0 0.70710678118654691 0.70710678118654691 0 I I #
-70 coedge $-1 -1 -1 $-1 $48 $47 $91 $92 reversed $36 $-1 #
-71 edge $-1 -1 -1 $-1 $33 -7.4388509053849541 $93 0 $47 $94 forward @7 unknown T -15 5 5 -9.4921417236328107 10 5 #
-72 edge $-1 -1 -1 $-1 $95 0 $49 7.4388509053849532 $48 $96 forward @7 unknown T -15 5 0 -9.4921417236328107 10 0 #
-73 point $-1 -1 -1 $-1 -15 10 0 #
-74 point $-1 -1 -1 $-1 -10 15 0 #
-75 face $-1 -1 -1 $-1 $97 $98 $5 $-1 $99 forward double out T 10 15 0 15 15 5 F #
-76 loop $-1 -1 -1 $-1 $-1 $100 $55 T 4.80615234375 10 0 10 15 5 periphery $77 F #
-77 plane-surface $-1 -1 -1 $-1 7.403076171875 12.5 0 0.69353495358566186 -0.72042297864166849 0 0.72042297864166849 0.69353495358566186 0 forward_v I I I I #
-78 coedge $-1 -1 -1 $-1 $80 $101 $-1 $102 forward $56 $-1 #
-79 coedge $-1 -1 -1 $-1 $59 $58 $-1 $103 forward $22 $-1 #
-80 coedge $-1 -1 -1 $-1 $104 $78 $40 $62 reversed $56 $-1 #
-81 coedge $-1 -1 -1 $-1 $105 $106 $107 $82 reversed $108 $-1 #
-82 edge $-1 -1 -1 $-1 $109 0 $83 5 $81 $110 forward @7 unknown T -4.7287921939405404 5 0 -4.7287921939405404 5 5 #
-83 vertex $-1 -1 -1 $-1 $82 $111 #
-84 straight-curve $-1 -1 -1 $-1 0 10 5 0.68712795385005476 0.72653642375164895 0 I I #
-85 edge $-1 -1 -1 $-1 $66 0 $86 7.2766650985442718 $61 $112 forward @7 unknown T -5.2867622375488299 10 0 8.8817841970012523e-16 15 0 #
-86 vertex $-1 -1 -1 $-1 $113 $114 #
-87 straight-curve $-1 -1 -1 $-1 0 10 0 0 0 1 I I #
-88 point $-1 -1 -1 $-1 0 10 5 #
-89 straight-curve $-1 -1 -1 $-1 -10 15 0 1 0 0 I I #
-90 point $-1 -1 -1 $-1 -5.2867622375488299 15 0 #
-91 coedge $-1 -1 -1 $-1 $115 $116 $117 $92 reversed $118 $-1 #
-92 edge $-1 -1 -1 $-1 $95 0 $93 5 $91 $119 forward @7 unknown T -9.4921417236328107 5 0 -9.4921417236328107 5 5 #
-93 vertex $-1 -1 -1 $-1 $92 $120 #
-94 straight-curve $-1 -1 -1 $-1 -9.4921417236328107 5 5 0.74041788798053054 -0.67214682262021352 0 I I #
-95 vertex $-1 -1 -1 $-1 $121 $122 #
-96 straight-curve $-1 -1 -1 $-1 -9.4921417236328107 5 0 -0.74041788798053054 0.67214682262021352 0 I I #
-97 face $-1 -1 -1 $-1 $123 $124 $5 $-1 $125 forward double out T 15 10 0 20 15 5 F #
-98 loop $-1 -1 -1 $-1 $-1 $126 $75 T 10 15 0 15 15 5 periphery $99 F #
-99 plane-surface $-1 -1 -1 $-1 12.5 15 0 0 -1 0 1 0 0 forward_v I I I I #
-100 coedge $-1 -1 -1 $-1 $127 $128 $-1 $129 forward $76 $-1 #
-101 coedge $-1 -1 -1 $-1 $78 $104 $130 $131 forward $56 $-1 #
-102 edge $-1 -1 -1 $-1 $132 -4.80615234375 $63 -0 $78 $133 forward @7 unknown T 0 10 5 4.80615234375 10 5 #
-103 edge $-1 -1 -1 $-1 $86 0 $109 6.8819674231627239 $79 $134 forward @7 unknown T -4.7287921939405404 5 0 0 10 0 #
-104 coedge $-1 -1 -1 $-1 $101 $80 $-1 $113 forward $56 $-1 #
-105 coedge $-1 -1 -1 $-1 $117 $81 $-1 $135 forward $108 $-1 #
-106 coedge $-1 -1 -1 $-1 $81 $117 $-1 $136 forward $108 $-1 #
-107 coedge $-1 -1 -1 $-1 $137 $138 $59 $82 forward $139 $-1 #
-108 loop $-1 -1 -1 $-1 $-1 $106 $140 T -9.4921417236328107 5 0 -4.7287921939405404 5 5 periphery $141 F #
-109 vertex $-1 -1 -1 $-1 $135 $142 #
-110 straight-curve $-1 -1 -1 $-1 -4.7287921939405404 5 0 0 0 1 I I #
-111 point $-1 -1 -1 $-1 -4.7287921939405404 5 5 #
-112 straight-curve $-1 -1 -1 $-1 -5.2867622375488299 15 0 0.72653642375357774 -0.6871279538480165 0 I I #
-113 edge $-1 -1 -1 $-1 $86 0 $143 4.80615234375 $104 $144 forward @7 unknown T 0 10 0 4.80615234375 10 0 #
-114 point $-1 -1 -1 $-1 0 10 0 #
-115 coedge $-1 -1 -1 $-1 $145 $91 $-1 $121 forward $118 $-1 #
-116 coedge $-1 -1 -1 $-1 $91 $145 $-1 $146 forward $118 $-1 #
-117 coedge $-1 -1 -1 $-1 $106 $105 $70 $92 forward $108 $-1 #
-118 loop $-1 -1 -1 $-1 $-1 $116 $147 T -15 0 0 -9.4921417236328107 5 5 periphery $148 F #
-119 straight-curve $-1 -1 -1 $-1 -9.4921417236328107 5 0 0 0 1 I I #
-120 point $-1 -1 -1 $-1 -9.4921417236328107 5 5 #
-121 edge $-1 -1 -1 $-1 $95 0 $149 7.4388509053849532 $115 $150 forward @7 unknown T -15 0 0 -9.4921417236328107 5 0 #
-122 point $-1 -1 -1 $-1 -9.4921417236328107 5 0 #
-123 face $-1 -1 -1 $-1 $151 $152 $5 $-1 $153 forward double out T 15 5 0 20 10 5 F #
-124 loop $-1 -1 -1 $-1 $-1 $154 $97 T 15 10 0 20 15 5 periphery $125 F #
-125 plane-surface $-1 -1 -1 $-1 17.5 12.5 0 -0.70710678118654746 -0.70710678118654746 0 0.70710678118654746 -0.70710678118654746 0 forward_v I I I I #
-126 coedge $-1 -1 -1 $-1 $155 $156 $-1 $157 forward $98 $-1 #
-127 coedge $-1 -1 -1 $-1 $158 $100 $101 $131 reversed $76 $-1 #
-128 coedge $-1 -1 -1 $-1 $100 $158 $155 $159 forward $76 $-1 #
-129 edge $-1 -1 -1 $-1 $160 -7.2094419670549827 $132 -0 $100 $161 forward @7 unknown T 4.80615234375 10 5 10 15 5 #
-130 coedge $-1 -1 -1 $-1 $162 $163 $127 $131 reversed $164 $-1 #
-131 edge $-1 -1 -1 $-1 $143 0 $132 5 $130 $165 forward @7 unknown T 4.80615234375 10 0 4.80615234375 10 5 #
-132 vertex $-1 -1 -1 $-1 $131 $166 #
-133 straight-curve $-1 -1 -1 $-1 0 10 5 -1 -0 -0 I I #
-134 straight-curve $-1 -1 -1 $-1 0 10 0 -0.68712795385005476 -0.72653642375164895 0 I I #
-135 edge $167 -1 -1 $-1 $109 0 $95 4.7633495296922703 $105 $168 forward @7 unknown T -9.4921417236328107 5 0 -4.7287921939405404 5 0 #
-136 edge $-1 -1 -1 $-1 $93 -4.7633495296922703 $83 0 $106 $169 forward @7 unknown T -9.4921417236328107 5 5 -4.7287921939405404 5 5 #
-137 coedge $-1 -1 -1 $-1 $170 $107 $-1 $171 forward $139 $-1 #
-138 coedge $-1 -1 -1 $-1 $107 $170 $-1 $172 forward $139 $-1 #
-139 loop $-1 -1 -1 $-1 $-1 $137 $173 T -4.7287921939405413 0 0 0.60076904296875 5.0000000000000009 5 periphery $174 F #
-140 face $-1 -1 -1 $-1 $147 $108 $5 $-1 $141 forward double out T -9.4921417236328107 5 0 -4.7287921939405404 5 5 F #
-141 plane-surface $-1 -1 -1 $-1 -7.1104669587866756 5 0 0 1 -0 -1 0 0 forward_v I I I I #
-142 point $-1 -1 -1 $-1 -4.7287921939405404 5 0 #
-143 vertex $-1 -1 -1 $-1 $175 $176 #
-144 straight-curve $-1 -1 -1 $-1 0 10 0 1 0 0 I I #
-145 coedge $-1 -1 -1 $-1 $116 $115 $177 $178 forward $118 $-1 #
-146 edge $-1 -1 -1 $-1 $179 -7.4388509053849541 $93 0 $116 $180 forward @7 unknown T -15 0 5 -9.4921417236328107 5 5 #
-147 face $-1 -1 -1 $-1 $181 $118 $5 $-1 $148 forward double out T -15 0 0 -9.4921417236328107 5 5 F #
-148 plane-surface $-1 -1 -1 $-1 -12.246070861816404 2.5000000000000004 0 -0.67214682262021408 0.7404178879805311 0 -0.7404178879805311 -0.67214682262021408 0 forward_v I I I I #
-149 vertex $-1 -1 -1 $-1 $182 $183 #
-150 straight-curve $-1 -1 -1 $-1 -9.4921417236328107 5 0 -0.74041788798053054 -0.67214682262021352 0 I I #
-151 face $-1 -1 -1 $-1 $173 $164 $5 $-1 $184 forward double out T 4.80615234375 5 0 10.2130699157715 10 5 F #
-152 loop $-1 -1 -1 $-1 $-1 $185 $123 T 15 5 0 20 10 5 periphery $153 F #
-153 plane-surface $-1 -1 -1 $-1 17.5 7.5 0 -0.70710678118654746 0.70710678118654746 0 -0.70710678118654746 -0.70710678118654746 0 forward_v I I I I #
-154 coedge $-1 -1 -1 $-1 $186 $187 $-1 $188 forward $124 $-1 #
-155 coedge $-1 -1 -1 $-1 $189 $126 $128 $159 reversed $98 $-1 #
-156 coedge $-1 -1 -1 $-1 $126 $189 $186 $190 forward $98 $-1 #
-157 edge $-1 -1 -1 $-1 $191 -5 $160 -0 $126 $192 forward @7 unknown T 10 15 5 15 15 5 #
-158 coedge $-1 -1 -1 $-1 $128 $127 $-1 $193 forward $76 $-1 #
-159 edge $-1 -1 -1 $-1 $194 0 $160 5 $155 $195 forward @7 unknown T 10 15 0 10 15 5 #
-160 vertex $-1 -1 -1 $-1 $159 $196 #
-161 straight-curve $-1 -1 -1 $-1 4.80615234375 10 5 -0.72042297864166849 -0.69353495358566186 -0 I I #
-162 coedge $-1 -1 -1 $-1 $197 $130 $-1 $175 forward $164 $-1 #
-163 coedge $-1 -1 -1 $-1 $130 $197 $-1 $198 forward $164 $-1 #
-164 loop $-1 -1 -1 $-1 $-1 $163 $151 T 4.80615234375 5 0 10.2130699157715 10 5 periphery $184 F #
-165 straight-curve $-1 -1 -1 $-1 4.80615234375 10 0 0 0 1 I I #
-166 point $-1 -1 -1 $-1 4.80615234375 10 5 #
-167 integer_attrib-name_attrib-gen-attrib $-1 -1 $-1 $-1 $135 2 4 2 1 1 1 1 1 1 1 1 1 1 1 0 1 1 1 @16 SKETCH_ENTITY_ID 300019 #
-168 straight-curve $-1 -1 -1 $-1 -4.7287921939405404 5 0 -1 0 0 I I #
-169 straight-curve $-1 -1 -1 $-1 -4.7287921939405404 5 5 1 0 0 I I #
-170 coedge $-1 -1 -1 $-1 $138 $137 $199 $200 reversed $139 $-1 #
-171 edge $-1 -1 -1 $-1 $83 -7.307819303866653 $201 0 $137 $202 forward @7 unknown T -4.7287921939405413 0 5 0.60076904296875 5.0000000000000009 5 #
-172 edge $-1 -1 -1 $-1 $203 0 $109 7.307819303866653 $138 $204 forward @7 unknown T -4.7287921939405413 0 0 0.60076904296875 5.0000000000000009 0 #
-173 face $-1 -1 -1 $-1 $140 $139 $5 $-1 $174 forward double out T -4.7287921939405413 0 0 0.60076904296875 5.0000000000000009 5 F #
-174 plane-surface $-1 -1 -1 $-1 -2.0640115754858956 2.5000000000000004 0 0.68419863602188991 0.72929570577769454 -0 -0.72929570577769454 0.68419863602188991 0 forward_v I I I I #
-175 edge $205 -1 -1 $-1 $143 0 $206 7.3644251391832931 $162 $207 forward @7 unknown T 4.80615234375 5 0 10.2130699157715 10 0 #
-176 point $-1 -1 -1 $-1 4.80615234375 10 0 #
-177 coedge $-1 -1 -1 $-1 $208 $209 $145 $178 reversed $210 $-1 #
-178 edge $-1 -1 -1 $-1 $149 0 $179 5 $177 $211 forward @7 unknown T -15 0 0 -15 0 5 #
-179 vertex $-1 -1 -1 $-1 $178 $212 #
-180 straight-curve $-1 -1 -1 $-1 -9.4921417236328107 5 5 0.74041788798053054 0.67214682262021352 0 I I #
-181 face $-1 -1 -1 $-1 $213 $210 $5 $-1 $214 forward double out T -15 -5 0 -10.461030631782499 0 5 F #
-182 edge $-1 -1 -1 $-1 $149 0 $215 6.7529432787205295 $208 $216 forward @7 unknown T -15 -5 0 -10.461030631782499 0 0 #
-183 point $-1 -1 -1 $-1 -15 0 0 #
-184 plane-surface $-1 -1 -1 $-1 7.5096111297607493 7.5 0 -0.6789396192510545 -0.7341941115340227 0 0.7341941115340227 -0.6789396192510545 0 forward_v I I I I #
-185 coedge $-1 -1 -1 $-1 $217 $218 $-1 $219 forward $152 $-1 #
-186 coedge $-1 -1 -1 $-1 $220 $154 $156 $190 reversed $124 $-1 #
-187 coedge $-1 -1 -1 $-1 $154 $220 $217 $221 forward $124 $-1 #
-188 edge $-1 -1 -1 $-1 $222 -7.0710678118654755 $191 0 $154 $223 forward @7 unknown T 15 10 5 20 15 5 #
-189 coedge $-1 -1 -1 $-1 $156 $155 $-1 $224 forward $98 $-1 #
-190 edge $-1 -1 -1 $-1 $225 0 $191 5 $186 $226 forward @7 unknown T 15 15 0 15 15 5 #
-191 vertex $-1 -1 -1 $-1 $190 $227 #
-192 straight-curve $-1 -1 -1 $-1 10 15 5 -1 -0 -0 I I #
-193 edge $-1 -1 -1 $-1 $143 0 $194 7.2094419670549827 $158 $228 forward @7 unknown T 4.80615234375 10 0 10 15 0 #
-194 vertex $-1 -1 -1 $-1 $224 $229 #
-195 straight-curve $-1 -1 -1 $-1 10 15 0 0 0 1 I I #
-196 point $-1 -1 -1 $-1 10 15 5 #
-197 coedge $-1 -1 -1 $-1 $163 $162 $230 $231 forward $164 $-1 #
-198 edge $-1 -1 -1 $-1 $232 -7.364425139183294 $132 0 $163 $233 forward @7 unknown T 4.80615234375 5 5 10.2130699157715 10 5 #
-199 coedge $-1 -1 -1 $-1 $234 $235 $236 $200 forward $237 $-1 #
-200 edge $-1 -1 -1 $-1 $203 0 $201 5 $236 $238 forward @7 unknown T 0.60076904296875 0 0 0.60076904296875 0 5 #
-201 vertex $-1 -1 -1 $-1 $200 $239 #
-202 straight-curve $-1 -1 -1 $-1 0.60076904296875 0 5 0.72929570577769454 -0.68419863602188991 0 I I #
-203 vertex $-1 -1 -1 $-1 $240 $241 #
-204 straight-curve $-1 -1 -1 $-1 0.60076904296875 0 0 -0.72929570577769454 0.68419863602188991 0 I I #
-205 integer_attrib-name_attrib-gen-attrib $-1 -1 $-1 $-1 $175 2 4 2 1 1 1 1 1 1 1 1 1 1 1 0 1 1 1 @16 SKETCH_ENTITY_ID 300015 #
-206 vertex $-1 -1 -1 $-1 $242 $243 #
-207 straight-curve $-1 -1 -1 $-1 4.80615234375 10 0 0.73419411153402214 -0.67893961925105395 0 I I #
-208 coedge $-1 -1 -1 $-1 $244 $177 $-1 $182 forward $210 $-1 #
-209 coedge $-1 -1 -1 $-1 $177 $244 $-1 $245 forward $210 $-1 #
-210 loop $-1 -1 -1 $-1 $-1 $209 $181 T -15 -5 0 -10.461030631782499 0 5 periphery $214 F #
-211 straight-curve $-1 -1 -1 $-1 -15 0 0 0 0 1 I I #
-212 point $-1 -1 -1 $-1 -15 0 5 #
-213 face $-1 -1 -1 $-1 $246 $237 $5 $-1 $247 forward double out T -5.2867622375488299 -5 0 0.60076904296875 0 5 F #
-214 plane-surface $-1 -1 -1 $-1 -12.73051531589125 -2.5 0 -0.74041788796830277 -0.67214682263368464 0 0.67214682263368464 -0.74041788796830277 0 forward_v I I I I #
-215 vertex $-1 -1 -1 $-1 $248 $249 #
-216 straight-curve $-1 -1 -1 $-1 -15 0 0 0.67214682263368464 -0.74041788796830277 0 I I #
-217 coedge $-1 -1 -1 $-1 $250 $185 $187 $221 reversed $152 $-1 #
-218 coedge $-1 -1 -1 $-1 $185 $250 $251 $252 forward $152 $-1 #
-219 edge $-1 -1 -1 $-1 $253 -7.0710678118654755 $222 0 $185 $254 forward @7 unknown T 15 5 5 20 10 5 #
-220 coedge $-1 -1 -1 $-1 $187 $186 $-1 $255 forward $124 $-1 #
-221 edge $-1 -1 -1 $-1 $256 0 $222 5 $217 $257 forward @7 unknown T 20 10 0 20 10 5 #
-222 vertex $-1 -1 -1 $-1 $221 $258 #
-223 straight-curve $-1 -1 -1 $-1 15 15 5 -0.70710678118654691 0.70710678118654691 0 I I #
-224 edge $-1 -1 -1 $-1 $194 0 $225 5 $189 $259 forward @7 unknown T 10 15 0 15 15 0 #
-225 vertex $-1 -1 -1 $-1 $255 $260 #
-226 straight-curve $-1 -1 -1 $-1 15 15 0 0 0 1 I I #
-227 point $-1 -1 -1 $-1 15 15 5 #
-228 straight-curve $-1 -1 -1 $-1 4.80615234375 10 0 0.72042297864166849 0.69353495358566186 0 I I #
-229 point $-1 -1 -1 $-1 10 15 0 #
-230 coedge $-1 -1 -1 $-1 $261 $262 $263 $231 forward $264 $-1 #
-231 edge $-1 -1 -1 $-1 $206 0 $232 5 $263 $265 forward @7 unknown T 10.2130699157715 5 0 10.2130699157715 5 5 #
-232 vertex $-1 -1 -1 $-1 $231 $266 #
-233 straight-curve $-1 -1 -1 $-1 4.80615234375 10 5 -0.73419411153402214 0.67893961925105395 0 I I #
-234 coedge $-1 -1 -1 $-1 $267 $199 $-1 $268 forward $237 $-1 #
-235 coedge $-1 -1 -1 $-1 $199 $267 $-1 $269 forward $237 $-1 #
-236 coedge $-1 -1 -1 $-1 $270 $271 $170 $200 reversed $272 $-1 #
-237 loop $-1 -1 -1 $-1 $-1 $234 $213 T -5.2867622375488299 -5 0 0.60076904296875 0 5 periphery $247 F #
-238 straight-curve $-1 -1 -1 $-1 0.60076904296875 0 0 0 0 1 I I #
-239 point $-1 -1 -1 $-1 0.60076904296875 0 5 #
-240 edge $273 -1 -1 $-1 $203 0 $274 4.9885943583169601 $270 $275 forward @7 unknown T 0.60076904296875 0 0 5.5893634012857101 0 0 #
-241 point $-1 -1 -1 $-1 0.60076904296875 0 0 #
-242 edge $276 -1 -1 $-1 $206 0 $277 4.7869300842284996 $278 $279 forward @7 unknown T 10.2130699157715 5 0 15 5 0 #
-243 point $-1 -1 -1 $-1 10.2130699157715 5 0 #
-244 coedge $-1 -1 -1 $-1 $209 $208 $280 $281 forward $210 $-1 #
-245 edge $-1 -1 -1 $-1 $282 -6.7529432787205295 $179 0 $209 $283 forward @7 unknown T -15 -5 5 -10.461030631782499 0 5 #
-246 face $-1 -1 -1 $-1 $284 $272 $5 $-1 $285 forward double out T 0.60076904296875 0 0 5.5893634012857101 0 5 F #
-247 plane-surface $-1 -1 -1 $-1 -2.34299659729004 -2.5000000000000004 0 0.64731753462164821 -0.76222044670249511 0 0.76222044670249511 0.64731753462164821 0 forward_v I I I I #
-248 edge $286 -1 -1 $-1 $215 0 $287 5.1742683942336694 $288 $289 forward @7 unknown T -10.461030631782499 -5 0 -5.2867622375488299 -5 0 #
-249 point $-1 -1 -1 $-1 -10.461030631782499 -5 0 #
-250 coedge $-1 -1 -1 $-1 $218 $217 $-1 $290 forward $152 $-1 #
-251 coedge $-1 -1 -1 $-1 $291 $278 $292 $252 forward $293 $-1 #
-252 edge $-1 -1 -1 $-1 $277 0 $253 5 $292 $294 forward @7 unknown T 15 5 0 15 5 5 #
-253 vertex $-1 -1 -1 $-1 $252 $295 #
-254 straight-curve $-1 -1 -1 $-1 20 10 5 0.70710678118654691 0.70710678118654691 0 I I #
-255 edge $-1 -1 -1 $-1 $225 0 $256 7.0710678118654746 $220 $296 forward @7 unknown T 15 10 0 20 15 0 #
-256 vertex $-1 -1 -1 $-1 $290 $297 #
-257 straight-curve $-1 -1 -1 $-1 20 10 0 0 0 1 I I #
-258 point $-1 -1 -1 $-1 20 10 5 #
-259 straight-curve $-1 -1 -1 $-1 10 15 0 1 0 0 I I #
-260 point $-1 -1 -1 $-1 15 15 0 #
-261 coedge $-1 -1 -1 $-1 $298 $230 $-1 $299 forward $264 $-1 #
-262 coedge $-1 -1 -1 $-1 $230 $298 $-1 $300 forward $264 $-1 #
-263 coedge $-1 -1 -1 $-1 $278 $291 $197 $231 reversed $293 $-1 #
-264 loop $-1 -1 -1 $-1 $-1 $261 $301 T 5.5893634012857101 0 0 10.2130699157715 5 5 periphery $302 F #
-265 straight-curve $-1 -1 -1 $-1 10.2130699157715 5 0 0 0 1 I I #
-266 point $-1 -1 -1 $-1 10.2130699157715 5 5 #
-267 coedge $-1 -1 -1 $-1 $235 $234 $303 $304 reversed $237 $-1 #
-268 edge $-1 -1 -1 $-1 $201 -7.7241843957192646 $305 -0 $234 $306 forward @7 unknown T -5.2867622375488299 -5 5 0.60076904296875 0 5 #
-269 edge $-1 -1 -1 $-1 $287 0 $203 7.7241843957192637 $235 $307 forward @7 unknown T -5.2867622375488299 -5 0 0.60076904296875 0 0 #
-270 coedge $-1 -1 -1 $-1 $308 $236 $-1 $240 forward $272 $-1 #
-271 coedge $-1 -1 -1 $-1 $236 $308 $-1 $309 forward $272 $-1 #
-272 loop $-1 -1 -1 $-1 $-1 $271 $246 T 0.60076904296875 0 0 5.5893634012857101 0 5 periphery $285 F #
-273 integer_attrib-name_attrib-gen-attrib $-1 -1 $-1 $-1 $240 2 4 2 1 1 1 1 1 1 1 1 1 1 1 0 1 1 1 @16 SKETCH_ENTITY_ID 300024 #
-274 vertex $-1 -1 -1 $-1 $300 $310 #
-275 straight-curve $-1 -1 -1 $-1 0.60076904296875 0 0 1 0 0 I I #
-276 integer_attrib-name_attrib-gen-attrib $-1 -1 $-1 $-1 $242 2 4 2 1 1 1 1 1 1 1 1 1 1 1 0 1 1 1 @16 SKETCH_ENTITY_ID 300030 #
-277 vertex $-1 -1 -1 $-1 $311 $312 #
-278 coedge $-1 -1 -1 $-1 $251 $263 $-1 $242 forward $293 $-1 #
-279 straight-curve $-1 -1 -1 $-1 10.2130699157715 5 0 1 0 0 I I #
-280 coedge $-1 -1 -1 $-1 $313 $314 $315 $281 forward $316 $-1 #
-281 edge $-1 -1 -1 $-1 $215 0 $282 5 $315 $317 forward @7 unknown T -10.461030631782499 -5 0 -10.461030631782499 -5 5 #
-282 vertex $-1 -1 -1 $-1 $281 $318 #
-283 straight-curve $-1 -1 -1 $-1 -15 0 5 -0.67214682263368464 0.74041788796830277 0 I I #
-284 face $-1 -1 -1 $-1 $319 $320 $5 $-1 $321 forward double out T 5.5893634012857101 -5 0 10.996280973135303 0 5 F #
-285 plane-surface $-1 -1 -1 $-1 3.09506622212723 0 0 0 -1 0 1 0 0 forward_v I I I I #
-286 integer_attrib-name_attrib-gen-attrib $-1 -1 $-1 $-1 $248 2 4 2 1 1 1 1 1 1 1 1 1 1 1 0 1 1 1 @16 SKETCH_ENTITY_ID 300035 #
-287 vertex $-1 -1 -1 $-1 $322 $323 #
-288 coedge $-1 -1 -1 $-1 $303 $315 $-1 $248 forward $324 $-1 #
-289 straight-curve $-1 -1 -1 $-1 -10.461030631782499 -5 0 1 0 0 I I #
-290 edge $-1 -1 -1 $-1 $256 0 $277 7.0710678118654746 $250 $325 forward @7 unknown T 15 5 0 20 10 0 #
-291 coedge $-1 -1 -1 $-1 $263 $251 $-1 $326 forward $293 $-1 #
-292 coedge $-1 -1 -1 $-1 $327 $328 $218 $252 reversed $329 $-1 #
-293 loop $-1 -1 -1 $-1 $-1 $291 $330 T 10.2130699157715 5 0 15 5 5 periphery $331 F #
-294 straight-curve $-1 -1 -1 $-1 15 5 0 0 0 1 I I #
-295 point $-1 -1 -1 $-1 15 5 5 #
-296 straight-curve $-1 -1 -1 $-1 15 15 0 0.70710678118654691 -0.70710678118654691 0 I I #
-297 point $-1 -1 -1 $-1 20 10 0 #
-298 coedge $-1 -1 -1 $-1 $262 $261 $308 $332 reversed $264 $-1 #
-299 edge $-1 -1 -1 $-1 $232 -6.8101880981437173 $333 -0 $261 $334 forward @7 unknown T 5.5893634012857101 0 5 10.2130699157715 5 5 #
-300 edge $335 -1 -1 $-1 $274 0 $206 6.8101880981437164 $262 $336 forward @7 unknown T 5.5893634012857101 0 0 10.2130699157715 5 0 #
-301 face $-1 -1 -1 $-1 $330 $264 $5 $-1 $302 forward double out T 5.5893634012857101 0 0 10.2130699157715 5 5 F #
-302 plane-surface $-1 -1 -1 $-1 7.9012166585286048 2.4999999999999996 0 0.73419411151989644 -0.6789396192663304 0 0.6789396192663304 0.73419411151989644 0 forward_v I I I I #
-303 coedge $-1 -1 -1 $-1 $337 $288 $338 $304 forward $324 $-1 #
-304 edge $-1 -1 -1 $-1 $287 0 $305 5 $338 $339 forward @7 unknown T -5.2867622375488299 -5 0 -5.2867622375488299 -5 5 #
-305 vertex $-1 -1 -1 $-1 $304 $340 #
-306 straight-curve $-1 -1 -1 $-1 -5.2867622375488299 -5 5 -0.76222044670249445 -0.64731753462164765 -0 I I #
-307 straight-curve $-1 -1 -1 $-1 -5.2867622375488299 -5 0 0.76222044670249445 0.64731753462164765 0 I I #
-308 coedge $-1 -1 -1 $-1 $271 $270 $341 $332 forward $272 $-1 #
-309 edge $-1 -1 -1 $-1 $333 -4.9885943583169601 $201 -0 $271 $342 forward @7 unknown T 0.60076904296875 0 5 5.5893634012857101 0 5 #
-310 point $-1 -1 -1 $-1 5.5893634012857101 0 0 #
-311 edge $-1 -1 -1 $-1 $277 0 $343 7.0710678118654746 $327 $344 forward @7 unknown T 15 0 0 20 5 0 #
-312 point $-1 -1 -1 $-1 15 5 0 #
-313 coedge $-1 -1 -1 $-1 $345 $280 $-1 $346 forward $316 $-1 #
-314 coedge $-1 -1 -1 $-1 $280 $345 $-1 $347 forward $316 $-1 #
-315 coedge $-1 -1 -1 $-1 $288 $337 $244 $281 reversed $324 $-1 #
-316 loop $-1 -1 -1 $-1 $-1 $313 $348 T -15 -10 0 -10.461030631782499 -5 5 periphery $349 F #
-317 straight-curve $-1 -1 -1 $-1 -10.461030631782499 -5 0 0 0 1 I I #
-318 point $-1 -1 -1 $-1 -10.461030631782499 -5 5 #
-319 face $-1 -1 -1 $-1 $301 $350 $5 $-1 $351 forward double out T 6.2500000001746203 -10.1325499985784 0 10.996280973135301 -5 5 F #
-320 loop $-1 -1 -1 $-1 $-1 $352 $284 T 5.5893634012857101 -5 0 10.996280973135303 0 5 periphery $321 F #
-321 plane-surface $-1 -1 -1 $-1 8.2928221872105059 -2.5 0 -0.67893961926269053 -0.73419411152326253 0 0.73419411152326253 -0.67893961926269053 0 forward_v I I I I #
-322 edge $353 -1 -1 $-1 $287 0 $354 7.3683732563083044 $355 $356 forward @7 unknown T -5.2867622375488299 -10.1325499985784 0 8.8817841970012523e-16 -5 0 #
-323 point $-1 -1 -1 $-1 -5.2867622375488299 -5 0 #
-324 loop $-1 -1 -1 $-1 $-1 $337 $357 T -10.461030631782499 -5 0 -5.2867622375488299 -5 5 periphery $358 F #
-325 straight-curve $-1 -1 -1 $-1 20 10 0 -0.70710678118654691 -0.70710678118654691 0 I I #
-326 edge $-1 -1 -1 $-1 $253 -4.7869300842284996 $232 -0 $291 $359 forward @7 unknown T 10.2130699157715 5 5 15 5 5 #
-327 coedge $-1 -1 -1 $-1 $360 $292 $-1 $311 forward $329 $-1 #
-328 coedge $-1 -1 -1 $-1 $292 $360 $-1 $361 forward $329 $-1 #
-329 loop $-1 -1 -1 $-1 $-1 $328 $362 T 15 0 0 20 5 5 periphery $363 F #
-330 face $-1 -1 -1 $-1 $362 $293 $5 $-1 $331 forward double out T 10.2130699157715 5 0 15 5 5 F #
-331 plane-surface $-1 -1 -1 $-1 12.606534957885749 5 0 0 -1 0 1 0 0 forward_v I I I I #
-332 edge $-1 -1 -1 $-1 $274 0 $333 5 $298 $364 forward @7 unknown T 5.5893634012857101 0 0 5.5893634012857101 0 5 #
-333 vertex $-1 -1 -1 $-1 $332 $365 #
-334 straight-curve $-1 -1 -1 $-1 5.5893634012857101 0 5 -0.67893961926633006 -0.73419411151989611 -0 I I #
-335 integer_attrib-name_attrib-gen-attrib $-1 -1 $-1 $-1 $300 2 4 2 1 1 1 1 1 1 1 1 1 1 1 0 1 1 1 @16 SKETCH_ENTITY_ID 300029 #
-336 straight-curve $-1 -1 -1 $-1 5.5893634012857101 0 0 0.67893961926633006 0.73419411151989611 0 I I #
-337 coedge $-1 -1 -1 $-1 $315 $303 $-1 $366 forward $324 $-1 #
-338 coedge $-1 -1 -1 $-1 $355 $367 $267 $304 reversed $368 $-1 #
-339 straight-curve $-1 -1 -1 $-1 -5.2867622375488299 -5 0 0 0 1 I I #
-340 point $-1 -1 -1 $-1 -5.2867622375488299 -5 5 #
-341 coedge $-1 -1 -1 $-1 $369 $352 $298 $332 reversed $320 $-1 #
-342 straight-curve $-1 -1 -1 $-1 0.60076904296875 0 5 -1 -0 -0 I I #
-343 vertex $-1 -1 -1 $-1 $370 $371 #
-344 straight-curve $-1 -1 -1 $-1 15 5 0 0.70710678118654691 -0.70710678118654691 0 I I #
-345 coedge $-1 -1 -1 $-1 $314 $313 $372 $373 reversed $316 $-1 #
-346 edge $-1 -1 -1 $-1 $282 -6.7529432787205295 $374 -0 $313 $375 forward @7 unknown T -15 -10 5 -10.461030631782499 -5 5 #
-347 edge $-1 -1 -1 $-1 $376 0 $215 6.7529432787205295 $314 $377 forward @7 unknown T -15 -10 0 -10.461030631782499 -5 0 #
-348 face $-1 -1 -1 $-1 $357 $316 $5 $-1 $349 forward double out T -15 -10 0 -10.461030631782499 -5 5 F #
-349 plane-surface $-1 -1 -1 $-1 -12.73051531589125 -7.5 0 0.74041788796830277 -0.67214682263368464 0 0.67214682263368464 0.74041788796830277 0 forward_v I I I I #
-350 loop $-1 -1 -1 $-1 $-1 $378 $319 T 6.2500000001746203 -10.1325499985784 0 10.996280973135301 -5 5 periphery $351 F #
-351 plane-surface $-1 -1 -1 $-1 8.623140486654961 -7.5662749992891989 0 -0.73419411151344449 0.67893961927330748 0 -0.67893961927330748 -0.73419411151344449 0 forward_v I I I I #
-352 coedge $-1 -1 -1 $-1 $341 $379 $-1 $380 forward $320 $-1 #
-353 integer_attrib-name_attrib-gen-attrib $-1 -1 $-1 $-1 $322 2 4 2 1 1 1 1 1 1 1 1 1 1 1 0 1 1 1 @16 SKETCH_ENTITY_ID 300036 #
-354 vertex $-1 -1 -1 $-1 $381 $382 #
-355 coedge $-1 -1 -1 $-1 $383 $338 $-1 $322 forward $368 $-1 #
-356 straight-curve $-1 -1 -1 $-1 -5.2867622375488299 -5 0 0.717493814937057 -0.69656487531820632 0 I I #
-357 face $-1 -1 -1 $-1 $384 $324 $5 $-1 $358 forward double out T -10.461030631782499 -5 0 -5.2867622375488299 -5 5 F #
-358 plane-surface $-1 -1 -1 $-1 -7.8738964346656646 -5 0 0 -1 0 1 0 0 forward_v I I I I #
-359 straight-curve $-1 -1 -1 $-1 10.2130699157715 5 5 -1 -0 -0 I I #
-360 coedge $-1 -1 -1 $-1 $328 $327 $385 $386 forward $329 $-1 #
-361 edge $-1 -1 -1 $-1 $387 -7.0710678118654755 $253 0 $328 $388 forward @7 unknown T 15 0 5 20 5 5 #
-362 face $-1 -1 -1 $-1 $389 $329 $5 $-1 $363 forward double out T 15 0 0 20 5 5 F #
-363 plane-surface $-1 -1 -1 $-1 17.5 2.5000000000000004 0 -0.70710678118654746 -0.70710678118654746 0 0.70710678118654746 -0.70710678118654746 0 forward_v I I I I #
-364 straight-curve $-1 -1 -1 $-1 5.5893634012857101 0 0 0 0 1 I I #
-365 point $-1 -1 -1 $-1 5.5893634012857101 0 5 #
-366 edge $-1 -1 -1 $-1 $305 -5.1742683942336694 $282 -0 $337 $390 forward @7 unknown T -10.461030631782499 -5 5 -5.2867622375488299 -5 5 #
-367 coedge $-1 -1 -1 $-1 $338 $383 $-1 $391 forward $368 $-1 #
-368 loop $-1 -1 -1 $-1 $-1 $367 $384 T -5.2867622375488299 -10.1325499985784 0 8.8817841970012523e-16 -5 5 periphery $392 F #
-369 coedge $-1 -1 -1 $-1 $379 $341 $-1 $393 forward $320 $-1 #
-370 edge $-1 -1 -1 $-1 $343 0 $394 7.0710678118654746 $395 $396 forward @7 unknown T 15 -5 0 20 0 0 #
-371 point $-1 -1 -1 $-1 20 0 0 #
-372 coedge $-1 -1 -1 $-1 $397 $398 $345 $373 forward $399 $-1 #
-373 edge $-1 -1 -1 $-1 $376 0 $374 5 $372 $400 forward @7 unknown T -15 -10 0 -15 -10 5 #
-374 vertex $-1 -1 -1 $-1 $373 $401 #
-375 straight-curve $-1 -1 -1 $-1 -15 -10 5 -0.67214682263368464 -0.74041788796830277 -0 I I #
-376 vertex $-1 -1 -1 $-1 $402 $403 #
-377 straight-curve $-1 -1 -1 $-1 -15 -10 0 0.67214682263368464 0.74041788796830277 0 I I #
-378 coedge $-1 -1 -1 $-1 $404 $405 $-1 $406 forward $350 $-1 #
-379 coedge $-1 -1 -1 $-1 $352 $369 $404 $407 forward $320 $-1 #
-380 edge $-1 -1 -1 $-1 $408 -7.3644251390570794 $333 0 $352 $409 forward @7 unknown T 5.5893634012857101 -5 5 10.996280973135303 0 5 #
-381 edge $410 -1 -1 $-1 $354 0 $411 6.7839609207601201 $412 $413 forward @7 unknown T -4.7254688929312998 -15 0 0 -10.1325499985784 0 #
-382 point $-1 -1 -1 $-1 0 -10.1325499985784 0 #
-383 coedge $-1 -1 -1 $-1 $367 $355 $414 $415 forward $368 $-1 #
-384 face $-1 -1 -1 $-1 $416 $368 $5 $-1 $392 forward double out T -5.2867622375488299 -10.1325499985784 0 8.8817841970012523e-16 -5 5 F #
-385 coedge $-1 -1 -1 $-1 $395 $417 $360 $386 reversed $418 $-1 #
-386 edge $-1 -1 -1 $-1 $343 0 $387 5 $385 $419 forward @7 unknown T 20 0 0 20 0 5 #
-387 vertex $-1 -1 -1 $-1 $386 $420 #
-388 straight-curve $-1 -1 -1 $-1 15 5 5 -0.70710678118654691 0.70710678118654691 0 I I #
-389 face $-1 -1 -1 $-1 $421 $418 $5 $-1 $422 forward double out T 15 -5 0 20 0 5 F #
-390 straight-curve $-1 -1 -1 $-1 -10.461030631782499 -5 5 -1 -0 -0 I I #
-391 edge $-1 -1 -1 $-1 $423 -7.3683732563083044 $305 0 $367 $424 forward @7 unknown T -5.2867622375488299 -10.1325499985784 5 8.8817841970012523e-16 -5 5 #
-392 plane-surface $-1 -1 -1 $-1 -2.6433811187744145 -7.5662749992891998 0 -0.69656487531820632 -0.717493814937057 0 0.717493814937057 -0.69656487531820632 0 forward_v I I I I #
-393 edge $-1 -1 -1 $-1 $274 0 $425 7.3644251390570794 $369 $426 forward @7 unknown T 5.5893634012857101 -5 0 10.996280973135303 0 0 #
-394 vertex $-1 -1 -1 $-1 $427 $428 #
-395 coedge $-1 -1 -1 $-1 $429 $385 $-1 $370 forward $418 $-1 #
-396 straight-curve $-1 -1 -1 $-1 20 0 0 -0.70710678118654691 -0.70710678118654691 0 I I #
-397 coedge $-1 -1 -1 $-1 $430 $372 $-1 $431 forward $399 $-1 #
-398 coedge $-1 -1 -1 $-1 $372 $430 $-1 $402 forward $399 $-1 #
-399 loop $-1 -1 -1 $-1 $-1 $397 $432 T -15 -15 0 -10 -10 5 periphery $433 F #
-400 straight-curve $-1 -1 -1 $-1 -15 -10 0 0 0 1 I I #
-401 point $-1 -1 -1 $-1 -15 -10 5 #
-402 edge $-1 -1 -1 $-1 $434 0 $376 7.0710678118654746 $398 $435 forward @7 unknown T -15 -15 0 -10 -10 0 #
-403 point $-1 -1 -1 $-1 -15 -10 0 #
-404 coedge $-1 -1 -1 $-1 $436 $378 $437 $407 reversed $350 $-1 #
-405 coedge $-1 -1 -1 $-1 $378 $436 $438 $439 forward $350 $-1 #
-406 edge $-1 -1 -1 $-1 $440 -6.9907261827506675 $408 0 $378 $441 forward @7 unknown T 6.2500000001746203 -10.1325499985784 5 10.996280973135301 -5 5 #
-407 edge $-1 -1 -1 $-1 $425 0 $408 5 $437 $442 forward @7 unknown T 10.996280973135301 -5 0 10.996280973135301 -5 5 #
-408 vertex $-1 -1 -1 $-1 $407 $443 #
-409 straight-curve $-1 -1 -1 $-1 5.5893634012857101 0 5 -0.73419411152326253 0.67893961926269053 0 I I #
-410 integer_attrib-name_attrib-gen-attrib $-1 -1 $-1 $-1 $381 2 4 2 1 1 1 1 1 1 1 1 1 1 1 0 1 1 1 @16 SKETCH_ENTITY_ID 300041 #
-411 vertex $-1 -1 -1 $-1 $444 $445 #
-412 coedge $-1 -1 -1 $-1 $446 $414 $-1 $381 forward $447 $-1 #
-413 straight-curve $-1 -1 -1 $-1 0 -10.1325499985784 0 -0.69656487531797606 -0.71749381493727926 0 I I #
-414 coedge $-1 -1 -1 $-1 $412 $448 $449 $415 reversed $447 $-1 #
-415 edge $-1 -1 -1 $-1 $354 0 $423 5 $414 $450 forward @7 unknown T 0 -10.1325499985784 0 0 -10.1325499985784 5 #
-416 face $-1 -1 -1 $-1 $432 $451 $5 $-1 $452 forward double out T -10 -15 0 -4.7254688929312998 -15 5 F #
-417 coedge $-1 -1 -1 $-1 $385 $429 $-1 $453 forward $418 $-1 #
-418 loop $-1 -1 -1 $-1 $-1 $417 $389 T 15 -5 0 20 0 5 periphery $422 F #
-419 straight-curve $-1 -1 -1 $-1 20 0 0 0 0 1 I I #
-420 point $-1 -1 -1 $-1 20 0 5 #
-421 face $-1 -1 -1 $-1 $348 $454 $5 $-1 $455 forward double out T 10.996280973135301 -5 0 15 -5 5 F #
-422 plane-surface $-1 -1 -1 $-1 17.5 -2.4999999999999996 0 -0.70710678118654746 0.70710678118654746 0 -0.70710678118654746 -0.70710678118654746 0 forward_v I I I I #
-423 vertex $-1 -1 -1 $-1 $415 $456 #
-424 straight-curve $-1 -1 -1 $-1 -5.2867622375488299 -5 5 -0.717493814937057 0.69656487531820632 0 I I #
-425 vertex $-1 -1 -1 $-1 $457 $458 #
-426 straight-curve $-1 -1 -1 $-1 5.5893634012857101 0 0 0.73419411152326253 -0.67893961926269053 0 I I #
-427 edge $-1 -1 -1 $-1 $394 0 $459 7.0710678118654746 $460 $461 forward @7 unknown T 15 -10 0 20 -5 0 #
-428 point $-1 -1 -1 $-1 15 -5 0 #
-429 coedge $-1 -1 -1 $-1 $417 $395 $462 $463 forward $418 $-1 #
-430 coedge $-1 -1 -1 $-1 $398 $397 $464 $465 reversed $399 $-1 #
-431 edge $-1 -1 -1 $-1 $374 -7.0710678118654755 $466 0 $397 $467 forward @7 unknown T -15 -15 5 -10 -10 5 #
-432 face $-1 -1 -1 $-1 $468 $399 $5 $-1 $433 forward double out T -15 -15 0 -10 -10 5 F #
-433 plane-surface $-1 -1 -1 $-1 -12.5 -12.5 0 0.70710678118654746 0.70710678118654746 -0 -0.70710678118654746 0.70710678118654746 0 forward_v I I I I #
-434 vertex $-1 -1 -1 $-1 $402 $469 #
-435 straight-curve $-1 -1 -1 $-1 -10 -15 0 -0.70710678118654691 0.70710678118654691 0 I I #
-436 coedge $-1 -1 -1 $-1 $405 $404 $-1 $470 forward $350 $-1 #
-437 coedge $-1 -1 -1 $-1 $471 $472 $379 $407 forward $454 $-1 #
-438 coedge $-1 -1 -1 $-1 $473 $474 $475 $439 reversed $476 $-1 #
-439 edge $-1 -1 -1 $-1 $477 0 $440 5 $475 $478 forward @7 unknown T 6.2500000001746203 -10.1325499985784 0 6.2500000001746203 -10.1325499985784 5 #
-440 vertex $-1 -1 -1 $-1 $439 $479 #
-441 straight-curve $-1 -1 -1 $-1 10.996280973135301 -5 5 0.67893961927330704 0.73419411151344405 0 I I #
-442 straight-curve $-1 -1 -1 $-1 10.996280973135301 -5 0 0 0 1 I I #
-443 point $-1 -1 -1 $-1 10.996280973135301 -5 5 #
-444 edge $-1 -1 -1 $-1 $411 0 $480 7.1780822967170383 $481 $482 forward @7 unknown T -4.7254688929312998 -20 0 0.42476075810782277 -15 0 #
-445 point $-1 -1 -1 $-1 -4.7254688929312998 -15 0 #
-446 coedge $-1 -1 -1 $-1 $448 $412 $483 $484 forward $447 $-1 #
-447 loop $-1 -1 -1 $-1 $-1 $448 $485 T -4.7254688929312998 -15 0 0 -10.1325499985784 5 periphery $486 F #
-448 coedge $-1 -1 -1 $-1 $414 $446 $-1 $487 forward $447 $-1 #
-449 coedge $-1 -1 -1 $-1 $474 $473 $383 $415 forward $476 $-1 #
-450 straight-curve $-1 -1 -1 $-1 0 -10.1325499985784 0 0 0 1 I I #
-451 loop $-1 -1 -1 $-1 $-1 $488 $416 T -10 -15 0 -4.7254688929312998 -15 5 periphery $452 F #
-452 plane-surface $-1 -1 -1 $-1 -7.3627344464656499 -15 0 0 1 -0 -1 0 0 forward_v I I I I #
-453 edge $-1 -1 -1 $-1 $489 -7.0710678118654755 $387 0 $417 $490 forward @7 unknown T 15 -5 5 20 0 5 #
-454 loop $-1 -1 -1 $-1 $-1 $471 $421 T 10.996280973135301 -5 0 15 -5 5 periphery $455 F #
-455 plane-surface $-1 -1 -1 $-1 12.99814048656765 -5 0 0 1 -0 -1 0 0 forward_v I I I I #
-456 point $-1 -1 -1 $-1 0 -10.1325499985784 5 #
-457 edge $-1 -1 -1 $-1 $394 0 $425 4.0037190268646992 $472 $491 forward @7 unknown T 10.996280973135301 -5 0 15 -5 0 #
-458 point $-1 -1 -1 $-1 10.996280973135301 -5 0 #
-459 vertex $-1 -1 -1 $-1 $492 $493 #
-460 coedge $-1 -1 -1 $-1 $494 $495 $-1 $427 forward $496 $-1 #
-461 straight-curve $-1 -1 -1 $-1 15 -5 0 0.70710678118654691 -0.70710678118654691 0 I I #
-462 coedge $-1 -1 -1 $-1 $472 $471 $495 $463 reversed $454 $-1 #
-463 edge $-1 -1 -1 $-1 $394 0 $489 5 $495 $497 forward @7 unknown T 15 -5 0 15 -5 5 #
-464 coedge $-1 -1 -1 $-1 $488 $498 $430 $465 forward $451 $-1 #
-465 edge $-1 -1 -1 $-1 $434 0 $466 5 $430 $499 forward @7 unknown T -10 -15 0 -10 -15 5 #
-466 vertex $-1 -1 -1 $-1 $465 $500 #
-467 straight-curve $-1 -1 -1 $-1 -10 -15 5 0.70710678118654691 -0.70710678118654691 0 I I #
-468 face $-1 -1 -1 $-1 $485 $476 $5 $-1 $501 forward double out T 0 -10.1325499985784 0 6.2500000001746203 -10.1325499985784 5 F #
-469 point $-1 -1 -1 $-1 -10 -15 0 #
-470 edge $-1 -1 -1 $-1 $425 0 $477 6.9907261827506666 $436 $502 forward @7 unknown T 6.2500000001746203 -10.1325499985784 0 10.996280973135301 -5 0 #
-471 coedge $-1 -1 -1 $-1 $462 $437 $-1 $503 forward $454 $-1 #
-472 coedge $-1 -1 -1 $-1 $437 $462 $-1 $457 forward $454 $-1 #
-473 coedge $-1 -1 -1 $-1 $449 $438 $-1 $504 forward $476 $-1 #
-474 coedge $-1 -1 -1 $-1 $438 $449 $-1 $505 forward $476 $-1 #
-475 coedge $-1 -1 -1 $-1 $506 $507 $405 $439 forward $508 $-1 #
-476 loop $-1 -1 -1 $-1 $-1 $474 $468 T 0 -10.1325499985784 0 6.2500000001746203 -10.1325499985784 5 periphery $501 F #
-477 vertex $-1 -1 -1 $-1 $509 $510 #
-478 straight-curve $-1 -1 -1 $-1 6.2500000001746203 -10.1325499985784 0 0 0 1 I I #
-479 point $-1 -1 -1 $-1 6.2500000001746203 -10.1325499985784 5 #
-480 vertex $-1 -1 -1 $-1 $511 $512 #
-481 coedge $-1 -1 -1 $-1 $513 $514 $-1 $444 forward $515 $-1 #
-482 straight-curve $-1 -1 -1 $-1 -4.7254688929312998 -15 0 0.71749381494199738 -0.69656487531311739 0 I I #
-483 coedge $-1 -1 -1 $-1 $498 $488 $514 $484 reversed $451 $-1 #
-484 edge $-1 -1 -1 $-1 $411 0 $516 5 $514 $517 forward @7 unknown T -4.7254688929312998 -15 0 -4.7254688929312998 -15 5 #
-485 face $-1 -1 -1 $-1 $518 $447 $5 $-1 $486 forward double out T -4.7254688929312998 -15 0 0 -10.1325499985784 5 F #
-486 plane-surface $-1 -1 -1 $-1 -2.3627344464656495 -12.566274999289199 0 -0.71749381493727982 0.69656487531797662 0 -0.69656487531797662 -0.71749381493727982 0 forward_v I I I I #
-487 edge $-1 -1 -1 $-1 $516 -6.783960920760121 $423 0 $448 $519 forward @7 unknown T -4.7254688929312998 -15 5 0 -10.1325499985784 5 #
-488 coedge $-1 -1 -1 $-1 $483 $464 $-1 $520 forward $451 $-1 #
-489 vertex $-1 -1 -1 $-1 $463 $521 #
-490 straight-curve $-1 -1 -1 $-1 20 0 5 0.70710678118654691 0.70710678118654691 0 I I #
-491 straight-curve $-1 -1 -1 $-1 15 -5 0 -1 0 0 I I #
-492 edge $-1 -1 -1 $-1 $459 0 $522 7.0368782885180501 $523 $524 forward @7 unknown T 15.0241756436881 -14.9758243560791 0 20 -10 0 #
-493 point $-1 -1 -1 $-1 20 -10 0 #
-494 coedge $-1 -1 -1 $-1 $525 $460 $526 $527 forward $496 $-1 #
-495 coedge $-1 -1 -1 $-1 $460 $525 $429 $463 reversed $496 $-1 #
-496 loop $-1 -1 -1 $-1 $-1 $525 $528 T 15 -10 0 20 -5 5 periphery $529 F #
-497 straight-curve $-1 -1 -1 $-1 15 -5 0 0 0 1 I I #
-498 coedge $-1 -1 -1 $-1 $464 $483 $-1 $530 forward $451 $-1 #
-499 straight-curve $-1 -1 -1 $-1 -10 -15 0 0 0 1 I I #
-500 point $-1 -1 -1 $-1 -10 -15 5 #
-501 plane-surface $-1 -1 -1 $-1 3.1250000000873102 -10.1325499985784 0 0 1 -0 -1 0 0 forward_v I I I I #
-502 straight-curve $-1 -1 -1 $-1 10.996280973135301 -5 0 -0.67893961927330704 -0.73419411151344405 0 I I #
-503 edge $-1 -1 -1 $-1 $408 -4.0037190268646992 $489 0 $471 $531 forward @7 unknown T 10.996280973135301 -5 5 15 -5 5 #
-504 edge $532 -1 -1 $-1 $477 0 $354 6.2500000001746203 $473 $533 forward @7 unknown T 0 -10.1325499985784 0 6.2500000001746203 -10.1325499985784 0 #
-505 edge $-1 -1 -1 $-1 $423 -6.2500000001746203 $440 0 $474 $534 forward @7 unknown T 0 -10.1325499985784 5 6.2500000001746203 -10.1325499985784 5 #
-506 coedge $-1 -1 -1 $-1 $535 $475 $-1 $536 forward $508 $-1 #
-507 coedge $-1 -1 -1 $-1 $475 $535 $-1 $509 forward $508 $-1 #
-508 loop $-1 -1 -1 $-1 $-1 $506 $537 T 6.2500000001746194 -15 0 10 -10.132549998578398 5 periphery $538 F #
-509 edge $-1 -1 -1 $-1 $539 0 $477 6.1444747143290854 $507 $540 forward @7 unknown T 6.2500000001746194 -15 0 10 -10.132549998578398 0 #
-510 point $-1 -1 -1 $-1 6.2500000001746203 -10.1325499985784 0 #
-511 edge $-1 -1 -1 $-1 $480 0 $541 5.8252392418921772 $542 $543 forward @7 unknown T 0.42476075810782299 -20 0 6.25 -20 0 #
-512 point $-1 -1 -1 $-1 0.42476075810782299 -20 0 #
-513 coedge $-1 -1 -1 $-1 $544 $481 $545 $546 forward $515 $-1 #
-514 coedge $-1 -1 -1 $-1 $481 $544 $446 $484 reversed $515 $-1 #
-515 loop $-1 -1 -1 $-1 $-1 $544 $518 T -4.7254688929312998 -20 0 0.42476075810782277 -15 5 periphery $547 F #
-516 vertex $-1 -1 -1 $-1 $484 $548 #
-517 straight-curve $-1 -1 -1 $-1 -4.7254688929312998 -15 0 0 0 1 I I #
-518 face $-1 -1 -1 $-1 $549 $515 $5 $-1 $547 forward double out T -4.7254688929312998 -20 0 0.42476075810782277 -15 5 F #
-519 straight-curve $-1 -1 -1 $-1 0 -10.1325499985784 5 0.69656487531797606 0.71749381493727926 0 I I #
-520 edge $-1 -1 -1 $-1 $466 -5.2745311070687002 $516 0 $488 $550 forward @7 unknown T -10 -15 5 -4.7254688929312998 -15 5 #
-521 point $-1 -1 -1 $-1 15 -5 5 #
-522 vertex $-1 -1 -1 $-1 $551 $552 #
-523 coedge $-1 -1 -1 $-1 $553 $526 $-1 $492 forward $554 $-1 #
-524 straight-curve $-1 -1 -1 $-1 20 -10 0 -0.70710678120308901 -0.70710678117000614 0 I I #
-525 coedge $-1 -1 -1 $-1 $495 $494 $-1 $555 forward $496 $-1 #
-526 coedge $-1 -1 -1 $-1 $523 $556 $494 $527 reversed $554 $-1 #
-527 edge $-1 -1 -1 $-1 $459 0 $557 5 $526 $558 forward @7 unknown T 20 -10 0 20 -10 5 #
-528 face $-1 -1 -1 $-1 $559 $496 $5 $-1 $529 forward double out T 15 -10 0 20 -5 5 F #
-529 plane-surface $-1 -1 -1 $-1 17.5 -7.5 0 -0.70710678118654746 -0.70710678118654746 0 0.70710678118654746 -0.70710678118654746 0 forward_v I I I I #
-530 edge $-1 -1 -1 $-1 $411 0 $434 5.2745311070687002 $498 $560 forward @7 unknown T -10 -15 0 -4.7254688929312998 -15 0 #
-531 straight-curve $-1 -1 -1 $-1 15 -5 5 1 0 0 I I #
-532 integer_attrib-name_attrib-gen-attrib $-1 -1 $-1 $-1 $504 2 4 2 1 1 1 1 1 1 1 1 1 1 1 0 1 1 1 @16 SKETCH_ENTITY_ID 300040 #
-533 straight-curve $-1 -1 -1 $-1 6.2500000001746203 -10.1325499985784 0 -1 0 0 I I #
-534 straight-curve $-1 -1 -1 $-1 6.2500000001746203 -10.1325499985784 5 1 0 0 I I #
-535 coedge $-1 -1 -1 $-1 $507 $506 $561 $562 reversed $508 $-1 #
-536 edge $-1 -1 -1 $-1 $440 -6.1444747143290854 $563 0 $506 $564 forward @7 unknown T 6.2500000001746194 -15 5 10 -10.132549998578398 5 #
-537 face $-1 -1 -1 $-1 $528 $508 $5 $-1 $538 forward double out T 6.2500000001746194 -15 0 10 -10.132549998578398 5 F #
-538 plane-surface $-1 -1 -1 $-1 8.1250000000873097 -12.566274999289199 0 0.7921669837896107 0.61030440748340553 -0 -0.61030440748340553 0.7921669837896107 0 forward_v I I I I #
-539 vertex $-1 -1 -1 $-1 $551 $565 #
-540 straight-curve $-1 -1 -1 $-1 10 -15 0 -0.61030440748340553 0.7921669837896107 0 I I #
-541 vertex $-1 -1 -1 $-1 $566 $567 #
-542 coedge $-1 -1 -1 $-1 $568 $545 $-1 $511 forward $569 $-1 #
-543 straight-curve $-1 -1 -1 $-1 0.42476075810782299 -20 0 1 0 0 I I #
-544 coedge $-1 -1 -1 $-1 $514 $513 $-1 $570 forward $515 $-1 #
-545 coedge $-1 -1 -1 $-1 $542 $571 $513 $546 reversed $569 $-1 #
-546 edge $-1 -1 -1 $-1 $480 0 $572 5 $545 $573 forward @7 unknown T 0.42476075810782299 -20 0 0.42476075810782299 -20 5 #
-547 plane-surface $-1 -1 -1 $-1 -2.1503540674117385 -17.5 0 -0.69656487531311739 -0.71749381494199738 0 0.71749381494199738 -0.69656487531311739 0 forward_v I I I I #
-548 point $-1 -1 -1 $-1 -4.7254688929312998 -15 5 #
-549 face $-1 -1 -1 $-1 $574 $569 $5 $-1 $575 forward double out T 0.42476075810782299 -20 0 6.25 -20 5 F #
-550 straight-curve $-1 -1 -1 $-1 -4.7254688929312998 -15 5 1 0 0 I I #
-551 edge $-1 -1 -1 $-1 $522 0 $539 5.0242338082923359 $576 $577 forward @7 unknown T 10 -15 0 15.0241756436881 -14.9758243560791 0 #
-552 point $-1 -1 -1 $-1 15.0241756436881 -14.9758243560791 0 #
-553 coedge $-1 -1 -1 $-1 $556 $523 $578 $579 forward $554 $-1 #
-554 loop $-1 -1 -1 $-1 $-1 $556 $559 T 15.0241756436881 -14.9758243560791 0 20 -10 5 periphery $580 F #
-555 edge $-1 -1 -1 $-1 $557 -7.0710678118654755 $489 0 $525 $581 forward @7 unknown T 15 -10 5 20 -5 5 #
-556 coedge $-1 -1 -1 $-1 $526 $553 $-1 $582 forward $554 $-1 #
-557 vertex $-1 -1 -1 $-1 $527 $583 #
-558 straight-curve $-1 -1 -1 $-1 20 -10 0 0 0 1 I I #
-559 face $-1 -1 -1 $-1 $584 $554 $5 $-1 $580 forward double out T 15.0241756436881 -14.9758243560791 0 20 -10 5 F #
-560 straight-curve $-1 -1 -1 $-1 -4.7254688929312998 -15 0 -1 0 0 I I #
-561 coedge $-1 -1 -1 $-1 $585 $586 $587 $562 forward $588 $-1 #
-562 edge $-1 -1 -1 $-1 $539 0 $563 5 $587 $589 forward @7 unknown T 10 -15 0 10 -15 5 #
-563 vertex $-1 -1 -1 $-1 $562 $590 #
-564 straight-curve $-1 -1 -1 $-1 10 -15 5 0.61030440748340553 -0.7921669837896107 0 I I #
-565 point $-1 -1 -1 $-1 10 -15 0 #
-566 edge $-1 -1 -1 $-1 $541 0 $539 6.25 $586 $591 forward @7 unknown T 6.25 -20 0 10 -15 0 #
-567 point $-1 -1 -1 $-1 6.25 -20 0 #
-568 coedge $-1 -1 -1 $-1 $571 $542 $592 $593 forward $569 $-1 #
-569 loop $-1 -1 -1 $-1 $-1 $571 $549 T 0.42476075810782299 -20 0 6.25 -20 5 periphery $575 F #
-570 edge $-1 -1 -1 $-1 $572 -7.1780822967170383 $516 0 $544 $594 forward @7 unknown T -4.7254688929312998 -20 5 0.42476075810782277 -15 5 #
-571 coedge $-1 -1 -1 $-1 $545 $568 $-1 $595 forward $569 $-1 #
-572 vertex $-1 -1 -1 $-1 $546 $596 #
-573 straight-curve $-1 -1 -1 $-1 0.42476075810782299 -20 0 0 0 1 I I #
-574 face $-1 -1 -1 $-1 $537 $588 $5 $-1 $597 forward double out T 6.25 -20 0 10 -15 5 F #
-575 plane-surface $-1 -1 -1 $-1 3.3373803790539114 -20 0 0 -1 0 1 0 0 forward_v I I I I #
-576 coedge $-1 -1 -1 $-1 $587 $578 $-1 $551 forward $598 $-1 #
-577 straight-curve $-1 -1 -1 $-1 15.0241756436881 -14.9758243560791 0 -0.99998842318919434 -0.0048118071020100753 0 I I #
-578 coedge $-1 -1 -1 $-1 $576 $599 $553 $579 reversed $598 $-1 #
-579 edge $-1 -1 -1 $-1 $522 0 $600 5 $578 $601 forward @7 unknown T 15.0241756436881 -14.9758243560791 0 15.0241756436881 -14.9758243560791 5 #
-580 plane-surface $-1 -1 -1 $-1 17.512087821844048 -12.487912178039551 0 -0.70710678117000614 0.70710678120308901 0 -0.70710678120308901 -0.70710678117000614 0 forward_v I I I I #
-581 straight-curve $-1 -1 -1 $-1 15 -5 5 -0.70710678118654691 0.70710678118654691 0 I I #
-582 edge $-1 -1 -1 $-1 $600 -7.0368782885180501 $557 0 $556 $602 forward @7 unknown T 15.0241756436881 -14.9758243560791 5 20 -10 5 #
-583 point $-1 -1 -1 $-1 20 -10 5 #
-584 face $-1 -1 -1 $-1 $-1 $598 $5 $-1 $603 forward double out T 10 -15 0 15.0241756436881 -14.9758243560791 5 F #
-585 coedge $-1 -1 -1 $-1 $592 $561 $-1 $604 forward $588 $-1 #
-586 coedge $-1 -1 -1 $-1 $561 $592 $-1 $566 forward $588 $-1 #
-587 coedge $-1 -1 -1 $-1 $599 $576 $535 $562 forward $598 $-1 #
-588 loop $-1 -1 -1 $-1 $-1 $585 $574 T 6.25 -20 0 10 -15 5 periphery $597 F #
-589 straight-curve $-1 -1 -1 $-1 10 -15 0 0 0 1 I I #
-590 point $-1 -1 -1 $-1 10 -15 5 #
-591 straight-curve $-1 -1 -1 $-1 6.25 -20 0 0.59999999999999998 0.80000000000000004 0 I I #
-592 coedge $-1 -1 -1 $-1 $586 $585 $568 $593 reversed $588 $-1 #
-593 edge $-1 -1 -1 $-1 $541 0 $605 5 $592 $606 forward @7 unknown T 6.25 -20 0 6.25 -20 5 #
-594 straight-curve $-1 -1 -1 $-1 -4.7254688929312998 -15 5 -0.71749381494199738 0.69656487531311739 0 I I #
-595 edge $-1 -1 -1 $-1 $605 -5.8252392418921772 $572 -0 $571 $607 forward @7 unknown T 0.42476075810782299 -20 5 6.25 -20 5 #
-596 point $-1 -1 -1 $-1 0.42476075810782299 -20 5 #
-597 plane-surface $-1 -1 -1 $-1 8.125 -17.5 0 0.80000000000000004 -0.59999999999999998 0 0.59999999999999998 0.80000000000000004 0 forward_v I I I I #
-598 loop $-1 -1 -1 $-1 $-1 $599 $584 T 10 -15 0 15.0241756436881 -14.9758243560791 5 periphery $603 F #
-599 coedge $-1 -1 -1 $-1 $578 $587 $-1 $608 forward $598 $-1 #
-600 vertex $-1 -1 -1 $-1 $579 $609 #
-601 straight-curve $-1 -1 -1 $-1 15.0241756436881 -14.9758243560791 0 0 0 1 I I #
-602 straight-curve $-1 -1 -1 $-1 20 -10 5 0.70710678120308901 0.70710678117000614 0 I I #
-603 plane-surface $-1 -1 -1 $-1 12.512087821844052 -14.987912178039549 0 -0.0048118071020100787 0.99998842318919512 0 -0.99998842318919512 -0.0048118071020100787 0 forward_v I I I I #
-604 edge $-1 -1 -1 $-1 $563 -6.25 $605 -0 $585 $610 forward @7 unknown T 6.25 -20 5 10 -15 5 #
-605 vertex $-1 -1 -1 $-1 $593 $611 #
-606 straight-curve $-1 -1 -1 $-1 6.25 -20 0 0 0 1 I I #
-607 straight-curve $-1 -1 -1 $-1 0.42476075810782299 -20 5 -1 -0 -0 I I #
-608 edge $-1 -1 -1 $-1 $563 -5.0242338082923368 $600 0 $599 $612 forward @7 unknown T 10 -15 5 15.0241756436881 -14.9758243560791 5 #
-609 point $-1 -1 -1 $-1 15.0241756436881 -14.9758243560791 5 #
-610 straight-curve $-1 -1 -1 $-1 6.25 -20 5 -0.59999999999999998 -0.80000000000000004 -0 I I #
-611 point $-1 -1 -1 $-1 6.25 -20 5 #
-612 straight-curve $-1 -1 -1 $-1 15.0241756436881 -14.9758243560791 5 0.99998842318919434 0.0048118071020100753 0 I I #
End-of-ACIS-data 
